<mxfile host="app.diagrams.net">
  <diagram name="Use Case - Catena Vendita Videogiochi" id="rXMjWZ6eShqP2UvGcVBy">
    <mxGraphModel dx="1142" dy="841" grid="1" gridSize="10" guides="1" tooltips="1" connect="1" arrows="1" fold="1" page="1" pageScale="1" pageWidth="827" pageHeight="1169" math="0" shadow="0">
      <root>
        <mxCell id="0"/>
        <mxCell id="1" parent="0"/>
        <!-- Actors -->
        <mxCell id="actor1" value="Utente non registrato" style="shape=umlActor;verticalLabelPosition=bottom;verticalAlign=top;" vertex="1" parent="1">
          <mxGeometry x="20" y="100" width="30" height="60" as="geometry"/>
        </mxCell>
        <mxCell id="actor2" value="Utente registrato" style="shape=umlActor;verticalLabelPosition=bottom;verticalAlign=top;" vertex="1" parent="1">
          <mxGeometry x="20" y="240" width="30" height="60" as="geometry"/>
        </mxCell>
        <mxCell id="actor3" value="Amministratore" style="shape=umlActor;verticalLabelPosition=bottom;verticalAlign=top;" vertex="1" parent="1">
          <mxGeometry x="20" y="400" width="30" height="60" as="geometry"/>
        </mxCell>
        <mxCell id="actor4" value="Team di sviluppo" style="shape=umlActor;verticalLabelPosition=bottom;verticalAlign=top;" vertex="1" parent="1">
          <mxGeometry x="820" y="320" width="30" height="60" as="geometry"/>
        </mxCell>
        <!-- System -->
        <mxCell id="system" value="Catena Vendita Videogiochi" style="swimlane;" vertex="1" parent="1">
          <mxGeometry x="120" y="60" width="680" height="460" as="geometry"/>
        </mxCell>
        <!-- Use cases -->
        <mxCell id="uc1" value="Registrarsi" style="ellipse;whiteSpace=wrap;aspect=fixed;" vertex="1" parent="system">
          <mxGeometry x="60" y="20" width="120" height="40" as="geometry"/>
        </mxCell>
        <mxCell id="uc2" value="Login" style="ellipse;whiteSpace=wrap;aspect=fixed;" vertex="1" parent="system">
          <mxGeometry x="60" y="80" width="120" height="40" as="geometry"/>
        </mxCell>
        <mxCell id="uc3" value="Visualizzare catalogo giochi" style="ellipse;whiteSpace=wrap;aspect=fixed;" vertex="1" parent="system">
          <mxGeometry x="220" y="20" width="160" height="40" as="geometry"/>
        </mxCell>
        <mxCell id="uc4" value="Visualizzare novitÃ " style="ellipse;whiteSpace=wrap;aspect=fixed;" vertex="1" parent="system">
          <mxGeometry x="220" y="80" width="160" height="40" as="geometry"/>
        </mxCell>
        <mxCell id="uc5" value="Leggere recensioni" style="ellipse;whiteSpace=wrap;aspect=fixed;" vertex="1" parent="system">
          <mxGeometry x="220" y="140" width="160" height="40" as="geometry"/>
        </mxCell>
        <mxCell id="uc6" value="Comprare giochi" style="ellipse;whiteSpace=wrap;aspect=fixed;" vertex="1" parent="system">
          <mxGeometry x="220" y="200" width="160" height="40" as="geometry"/>
        </mxCell>
        <mxCell id="uc7" value="Scrivere recensioni" style="ellipse;whiteSpace=wrap;aspect=fixed;" vertex="1" parent="system">
          <mxGeometry x="220" y="260" width="160" height="40" as="geometry"/>
        </mxCell>
        <mxCell id="uc8" value="Inviare email al team" style="ellipse;whiteSpace=wrap;aspect=fixed;" vertex="1" parent="system">
          <mxGeometry x="220" y="320" width="160" height="40" as="geometry"/>
        </mxCell>
        <mxCell id="uc9" value="Gestire catalogo" style="ellipse;whiteSpace=wrap;aspect=fixed;" vertex="1" parent="system">
          <mxGeometry x="440" y="200" width="140" height="40" as="geometry"/>
        </mxCell>
        <mxCell id="uc10" value="Gestire recensioni" style="ellipse;whiteSpace=wrap;aspect=fixed;" vertex="1" parent="system">
          <mxGeometry x="440" y="260" width="140" height="40" as="geometry"/>
        </mxCell>
        <mxCell id="uc11" value="Gestire utenti" style="ellipse;whiteSpace=wrap;aspect=fixed;" vertex="1" parent="system">
          <mxGeometry x="440" y="320" width="140" height="40" as="geometry"/>
        </mxCell>
        <mxCell id="uc12" value="Ricevere email utenti" style="ellipse;whiteSpace=wrap;aspect=fixed;" vertex="1" parent="system">
          <mxGeometry x="620" y="320" width="160" height="40" as="geometry"/>
        </mxCell>
        <!-- Associations -->
        <mxCell id="a1" style="endArrow=block;" edge="1" parent="1" source="actor1" target="uc1"/>
        <mxCell id="a2" style="endArrow=block;" edge="1" parent="1" source="actor1" target="uc2"/>
        <mxCell id="a3" style="endArrow=block;" edge="1" parent="1" source="actor1" target="uc3"/>
        <mxCell id="a4" style="endArrow=block;" edge="1" parent="1" source="actor1" target="uc4"/>
        <mxCell id="a5" style="endArrow=block;" edge="1" parent="1" source="actor1" target="uc5"/>
        <mxCell id="a6" style="endArrow=block;" edge="1" parent="1" source="actor2" target="uc6"/>
        <mxCell id="a7" style="endArrow=block;" edge="1" parent="1" source="actor2" target="uc7"/>
        <mxCell id="a8" style="endArrow=block;" edge="1" parent="1" source="actor2" target="uc8"/>
        <mxCell id="a9" style="endArrow=block;" edge="1" parent="1" source="actor3" target="uc9"/>
        <mxCell id="a10" style="endArrow=block;" edge="1" parent="1" source="actor3" target="uc10"/>
        <mxCell id="a11" style="endArrow=block;" edge="1" parent="1" source="actor3" target="uc11"/>
        <mxCell id="a12" style="endArrow=block;" edge="1" parent="1" source="actor4" target="uc12"/>
        <!-- Include relationships (dashed) -->
        <mxCell id="inc1" style="dashed=1;endArrow=open;" edge="1" parent="1" source="uc6" target="uc3">
          <mxGeometry relative="1" as="geometry"/>
        </mxCell>
        <mxCell id="inc2" style="dashed=1;endArrow=open;" edge="1" parent="1" source="uc7" target="uc6">
          <mxGeometry relative="1" as="geometry"/>
        </mxCell>
        <mxCell id="inc3" style="dashed=1;endArrow=open;" edge="1" parent="1" source="uc8" target="uc2">
          <mxGeometry relative="1" as="geometry"/>
        </mxCell>
      </root>
    </mxGraphModel>
  </diagram>
</mxfile>
